<?xml version="1.0" encoding="us-ascii" standalone="no"?><svg xmlns="http://www.w3.org/2000/svg" xmlns:xlink="http://www.w3.org/1999/xlink" contentStyleType="text/css" height="168px" preserveAspectRatio="none" style="width:120px;height:168px;background:#FEFEFE;" version="1.1" viewBox="0 0 120 168" width="120px" zoomAndPan="magnify"><defs/><g><rect fill="#FEFEFE" height="168" style="stroke:none;stroke-width:1.0;" width="120" x="0" y="0"/><!--entity ?????????--><g id="elem_&#1052;&#1072;&#1088;&#1082;&#1077;&#1090;&#1061;&#1072;&#1073;"><rect fill="#F1F1F1" height="37.6094" rx="2.5" ry="2.5" style="stroke:#181818;stroke-width:0.5;" width="92" x="8.5" y="7"/><text fill="#000000" font-family="sans-serif" font-size="14" lengthAdjust="spacing" textLength="72" x="18.5" y="31.5332">&#1052;&#1072;&#1088;&#1082;&#1077;&#1090;&#1061;&#1072;&#1073;</text></g><!--entity PostgreSQL--><g id="elem_PostgreSQL"><path d="M6,115 C6,105 54.5,105 54.5,105 C54.5,105 103,105 103,115 L103,141.6094 C103,151.6094 54.5,151.6094 54.5,151.6094 C54.5,151.6094 6,151.6094 6,141.6094 L6,115 " fill="#F1F1F1" style="stroke:#181818;stroke-width:0.5;"/><path d="M6,115 C6,125 54.5,125 54.5,125 C54.5,125 103,125 103,115 " fill="none" style="stroke:#181818;stroke-width:0.5;"/><text fill="#000000" font-family="sans-serif" font-size="14" lengthAdjust="spacing" textLength="77" x="16" y="143.5332">PostgreSQL</text></g><!--link ????????? to PostgreSQL--><g id="link_&#1052;&#1072;&#1088;&#1082;&#1077;&#1090;&#1061;&#1072;&#1073;_PostgreSQL"><path d="M54.5,45.43 C54.5,62.21 54.5,81.01 54.5,98.96 " fill="none" id="&#1052;&#1072;&#1088;&#1082;&#1077;&#1090;&#1061;&#1072;&#1073;-to-PostgreSQL" style="stroke:#181818;stroke-width:1.0;"/><polygon fill="#181818" points="54.5,104.96,58.5,95.96,54.5,99.96,50.5,95.96,54.5,104.96" style="stroke:#181818;stroke-width:1.0;"/></g><!--SRC=[AyxEp2j8B4hCLKZEpot8pqlDAmakgSn9LIXAJIv9p4lFIUKgXYj9IapEJY_AByrBSSxFoIzIK7Pp1K4kBhXU1QKBSovikDXmOTU5hHURBYoziE72HYMkbCIInAJ4ubG5fO3yufBqejJWG1ybBYvCfGgwkdOA23K0]--></g></svg>